<svg width="25" height="25" viewBox="0 0 25 25" fill="none" xmlns="http://www.w3.org/2000/svg">
<path fill-rule="evenodd" clip-rule="evenodd" d="M17.6654 0.666504H6.9987C3.3168 0.666504 0.332031 3.65128 0.332031 7.33317V17.9998C0.332031 21.6817 3.3168 24.6665 6.9987 24.6665H17.6654C21.3472 24.6665 24.332 21.6817 24.332 17.9998V7.33317C24.332 3.65128 21.3472 0.666504 17.6654 0.666504ZM21.9987 17.9998C21.9914 20.39 20.0555 22.3258 17.6654 22.3332H6.9987C4.6085 22.3258 2.67268 20.39 2.66536 17.9998V7.33317C2.67268 4.94297 4.6085 3.00716 6.9987 2.99984H17.6654C20.0555 3.00716 21.9914 4.94297 21.9987 7.33317V17.9998ZM18.6654 7.6665C19.4018 7.6665 19.9987 7.06954 19.9987 6.33317C19.9987 5.5968 19.4018 4.99984 18.6654 4.99984C17.929 4.99984 17.332 5.5968 17.332 6.33317C17.332 7.06954 17.929 7.6665 18.6654 7.6665ZM12.332 6.6665C9.01832 6.6665 6.33203 9.3528 6.33203 12.6665C6.33203 15.9802 9.01832 18.6665 12.332 18.6665C15.6458 18.6665 18.332 15.9802 18.332 12.6665C18.3356 11.0741 17.7046 9.54593 16.5786 8.41994C15.4526 7.29396 13.9244 6.66296 12.332 6.6665ZM8.66537 12.6665C8.66537 14.6916 10.307 16.3332 12.332 16.3332C14.3571 16.3332 15.9987 14.6916 15.9987 12.6665C15.9987 10.6414 14.3571 8.99984 12.332 8.99984C10.307 8.99984 8.66537 10.6414 8.66537 12.6665Z" fill="#1D1D1B"/>
</svg>
