<svg width="145" height="38" viewBox="0 0 145 38" fill="none" xmlns="http://www.w3.org/2000/svg">
<mask id="mask0_15_1121" style="mask-type:luminance" maskUnits="userSpaceOnUse" x="0" y="0" width="145" height="38">
<path d="M18.4306 23.1772L10.4468 23.1115C9.99842 23.1115 10.109 22.8813 10.2136 22.5226L13.8633 10.1329C14.0396 9.5381 14.1921 8.62345 14.4521 9.18539C14.9125 10.1837 15.2951 11.3495 15.8361 12.9755L19.0912 22.7827C19.2107 23.1473 18.9865 23.1772 18.6398 23.1772C18.5741 23.1802 18.5053 23.1772 18.4306 23.1772ZM12.0549 6.06182L12.9187 7.10799L7.23353 26.3516C6.2322 29.7621 3.50319 34.6762 0 37.997H8.37835C6.74333 34.6463 7.655 29.9445 8.65633 26.5339L9.07182 25.1022C9.15551 24.8152 9.42153 24.4924 9.72044 24.4924L18.9417 24.6239C19.2317 24.6239 19.4857 24.8092 19.5784 25.0842L21.5183 30.904C22.5645 34.0873 23.0636 35.1813 22.702 38H33.2564C31.1192 35.1783 30.7545 34.0873 29.7083 30.904L23.8408 13.1638C22.7946 9.98049 22.4299 8.88649 22.6571 6.0678H12.0549V6.06182ZM51.8842 6.06182C52.6135 7.97183 52.1771 10.5185 51.0383 13.657L46.8805 25.1918L40.738 10.7487C40.3285 10.0672 39.7366 7.97482 39.6918 6.06182H27.6817C29.6844 7.92699 30.5483 9.20034 32.8678 14.3415L43.6045 37.997H44.0588L53.0201 13.113C54.2037 9.92968 54.9301 8.83567 57.2974 6.06182H51.8842ZM68.8412 23.1772L60.8574 23.1115C60.409 23.1115 60.5196 22.8813 60.6242 22.5226L64.2739 10.1329C64.4502 9.5381 64.6027 8.62345 64.8627 9.18539C65.3231 10.1837 65.7057 11.3495 66.2467 12.9755L69.5018 22.7827C69.6213 23.1473 69.3972 23.1772 69.0504 23.1772C68.9847 23.1802 68.9129 23.1772 68.8412 23.1772ZM62.4655 6.06182L57.6441 26.3516C56.6428 29.7621 53.9138 34.6762 50.4106 37.997H58.789C57.1539 34.6463 58.0656 29.9445 59.0669 26.5339L59.4824 25.1022C59.5661 24.8152 59.8321 24.4924 60.131 24.4924L69.3523 24.6239C69.6393 24.6239 69.8963 24.8092 69.989 25.0842L71.9289 30.904C72.9751 34.0873 73.4742 35.1813 73.1126 38H83.667C81.5298 35.1783 81.1651 34.0873 80.1189 30.904L74.2514 13.1638C73.2052 9.98049 72.8406 8.88649 73.0677 6.0678H62.4655V6.06182ZM85.4993 5.4969C86.8174 8.31858 86.6829 9.40958 86.6829 12.5929V30.333C86.6829 33.5164 86.8204 34.6104 85.4993 37.4291H96.0536C94.87 34.6074 94.87 33.5164 94.87 30.333V12.5929C94.87 9.40958 94.87 8.31559 96.0536 5.4969H85.4993ZM99.0995 5.4969C100.418 8.31858 100.283 9.40958 100.283 12.5929V30.333C100.283 33.5164 100.421 34.6104 99.0995 37.4291H109.654C108.47 34.6074 108.47 33.5164 108.47 30.333V12.5929C108.47 9.40958 108.47 8.31559 109.654 5.4969H99.0995ZM129.938 22.6123L121.954 22.5465C121.506 22.5465 121.616 22.3164 121.721 21.9607L125.37 9.57098C125.547 8.97615 125.699 8.0615 125.959 8.62345C126.42 9.6218 126.802 10.7875 127.343 12.4136L130.598 22.2207C130.718 22.5854 130.494 22.6153 130.147 22.6153C130.084 22.6123 130.012 22.6123 129.938 22.6123ZM123.565 5.4969L124.429 6.54307L118.744 25.7867C117.742 29.1972 115.013 34.1112 111.51 37.4321H119.888C118.253 34.0813 119.165 29.3795 120.166 25.969L120.582 24.5372C120.666 24.2503 120.929 23.9275 121.228 23.9275L130.449 24.059C130.739 24.059 130.993 24.2443 131.086 24.5193L133.025 30.339C134.072 33.5224 134.571 34.6164 134.209 37.4351H144.763C142.626 34.6134 142.262 33.5224 141.215 30.339L135.348 12.5989C134.302 9.41555 133.937 8.32155 134.164 5.50286H123.565V5.4969ZM93.8089 1.7785C93.8089 2.7619 94.604 3.55698 95.5873 3.55698C96.5678 3.55698 97.3659 2.7619 97.3659 1.7785C97.3659 0.798084 96.5708 0 95.5873 0C94.604 0 93.8089 0.795095 93.8089 1.7785ZM98.3104 1.7785C98.3104 2.7619 99.1055 3.55698 100.089 3.55698C101.072 3.55698 101.867 2.7619 101.867 1.7785C101.867 0.798084 101.072 0 100.089 0C99.1085 0 98.3104 0.795095 98.3104 1.7785Z" fill="white"/>
</mask>
<g mask="url(#mask0_15_1121)">
<mask id="mask1_15_1121" style="mask-type:luminance" maskUnits="userSpaceOnUse" x="-85" y="-433" width="298" height="552">
<path d="M212.187 -432.565H-84.3672V118.176H212.187V-432.565Z" fill="white"/>
</mask>
<g mask="url(#mask1_15_1121)">
<mask id="mask2_15_1121" style="mask-type:luminance" maskUnits="userSpaceOnUse" x="0" y="-13" width="145" height="70">
<path d="M144.76 -12.6045H0V56.6671H144.76V-12.6045Z" fill="white"/>
</mask>
<g mask="url(#mask2_15_1121)">
<rect y="-12.6045" width="144.766" height="69.2696" fill="black"/>
</g>
</g>
</g>
</svg>
