<svg width="45" height="46" viewBox="0 0 45 46" fill="none" xmlns="http://www.w3.org/2000/svg">
<path d="M2.39062 2.55664L2.9886 2.75774C5.96826 3.75982 7.45809 4.26086 8.31024 5.4537C9.16239 6.64654 9.16239 8.23096 9.16239 11.3998V17.3597C9.16239 23.8011 9.16239 27.0218 11.1458 29.0229C13.1292 31.024 16.3214 31.024 22.7059 31.024H40.7639" stroke="white" stroke-width="3.18834" stroke-linecap="round"/>
<path opacity="0.85" d="M14.8078 36.7176C16.6777 36.7176 18.1936 38.2471 18.1936 40.1337C18.1936 42.0204 16.6777 43.5498 14.8078 43.5498C12.9378 43.5498 11.4219 42.0204 11.4219 40.1337C11.4219 38.2471 12.9378 36.7176 14.8078 36.7176Z" stroke="white" stroke-width="3.18834"/>
<path opacity="0.85" d="M35.1203 36.7178C36.9902 36.7178 38.5061 38.2472 38.5061 40.1339C38.5061 42.0205 36.9902 43.55 35.1203 43.55C33.2503 43.55 31.7344 42.0205 31.7344 40.1339C31.7344 38.2472 33.2503 36.7178 35.1203 36.7178Z" stroke="white" stroke-width="3.18834"/>
<path opacity="0.85" d="M22.7093 16.2207H15.9375" stroke="white" stroke-width="3.18834" stroke-linecap="round"/>
<path d="M9.15625 9.38867H35.0027C39.6413 9.38867 41.9606 9.38867 42.9642 10.9242C43.9678 12.4598 43.0541 14.6106 41.2269 18.9122L40.2595 21.1895C39.4064 23.1978 38.9799 24.202 38.1318 24.7662C37.2838 25.3304 36.2009 25.3304 34.0353 25.3304H9.15625" stroke="white" stroke-width="3.18834"/>
</svg>
