<svg width="50" height="49" viewBox="0 0 50 49" fill="none" xmlns="http://www.w3.org/2000/svg">
<path d="M2.26562 2L2.92205 2.22076C6.19297 3.32079 7.82843 3.87081 8.76388 5.18024C9.69932 6.48968 9.69932 8.22899 9.69932 11.7076V18.25C9.69932 25.3211 9.69932 28.8566 11.8766 31.0533C14.0539 33.25 17.5582 33.25 24.5667 33.25H44.3899" stroke="#1D1D1B" stroke-width="3.5" stroke-linecap="round"/>
<path opacity="0.85" d="M15.8926 39.5C17.9454 39.5 19.6095 41.1789 19.6095 43.25C19.6095 45.3211 17.9454 47 15.8926 47C13.8399 47 12.1758 45.3211 12.1758 43.25C12.1758 41.1789 13.8399 39.5 15.8926 39.5Z" stroke="#1D1D1B" stroke-width="3.5"/>
<path opacity="0.85" d="M38.1934 39.5002C40.2462 39.5002 41.9103 41.1791 41.9103 43.2502C41.9103 45.3213 40.2462 47.0002 38.1934 47.0002C36.1407 47.0002 34.4766 45.3213 34.4766 43.2502C34.4766 41.1791 36.1407 39.5002 38.1934 39.5002Z" stroke="#1D1D1B" stroke-width="3.5"/>
<path opacity="0.85" d="M24.5665 17H17.1328" stroke="#1D1D1B" stroke-width="3.5" stroke-linecap="round"/>
<path d="M9.69922 9.5H38.0721C43.1641 9.5 45.7102 9.5 46.8119 11.1857C47.9135 12.8713 46.9106 15.2323 44.9048 19.9544L43.8428 22.4544C42.9063 24.659 42.4381 25.7613 41.5071 26.3807C40.5762 27 39.3875 27 37.0102 27H9.69922" stroke="#1D1D1B" stroke-width="3.5"/>
</svg>
