<svg width="130" height="31" viewBox="0 0 130 31" fill="none" xmlns="http://www.w3.org/2000/svg">
<path d="M29.1176 15.7305C29.1176 5.84812 22.2353 0.730469 14.6471 0.730469C6.88236 0.730469 0 6.02459 0 15.7305C0 25.6128 6.88234 30.7305 14.4706 30.7305C22.2353 30.7305 29.1176 25.6128 29.1176 15.7305ZM79.7645 15.7305C79.7645 5.84812 72.8822 0.730469 65.2939 0.730469C57.5292 0.730469 50.6469 6.02459 50.6469 15.7305C50.6469 25.6128 57.5294 30.7305 65.1176 30.7305C72.8823 30.7305 79.7645 25.6128 79.7645 15.7305Z" fill="white"/>
<path d="M115.168 0.730469C122.756 0.730469 129.639 5.84812 129.639 15.7305C129.639 25.6128 122.757 30.7305 114.992 30.7305C107.404 30.7305 100.521 25.6128 100.521 15.7305C100.521 6.02459 107.403 0.730469 115.168 0.730469Z" fill="white"/>
</svg>
