<svg width="219" height="206" viewBox="0 0 219 206" fill="none" xmlns="http://www.w3.org/2000/svg">
<path d="M192.161 166.295C172.689 210.913 123.922 237.194 74.4731 226.598C18.023 214.5 -17.9299 158.935 -5.83278 102.485C5.52405 49.4897 55.2055 14.553 107.949 20.5" stroke="black" stroke-width="8.58428" stroke-linecap="round" stroke-linejoin="round"/>
<path d="M38.6779 144.201L38.8042 144.11M140.887 166.104L141.013 166.013M86.1325 122.299L86.2588 122.209M194.913 113.54L195.039 113.449M160.6 74.1155L160.726 74.025M108.058 19.9877C99.6617 34.224 106.597 51.7456 122.797 55.2173C93.8206 86.4237 106.596 126.578 158.796 132.419C153.32 157.971 177.777 168.557 191.107 166.218M44.541 91.8986C43.1856 91.6081 42.0011 90.7911 41.2481 89.6274C40.4951 88.4636 40.2352 87.0483 40.5257 85.693C40.8162 84.3376 41.6331 83.1531 42.7969 82.4001C43.9607 81.6471 45.3759 81.3872 46.7313 81.6777C48.0867 81.9681 49.2712 82.7851 50.0242 83.9489C50.7772 85.1127 51.0371 86.5279 50.7466 87.8833C50.4562 89.2387 49.6392 90.4231 48.4754 91.1762C47.3116 91.9292 45.8964 92.189 44.541 91.8986ZM200.776 61.2376C199.42 60.9472 198.236 60.1302 197.483 58.9664C196.73 57.8026 196.47 56.3874 196.76 55.032C197.051 53.6766 197.868 52.4922 199.032 51.7391C200.195 50.9861 201.611 50.7263 202.966 51.0167C204.321 51.3072 205.506 52.1242 206.259 53.2879C207.012 54.4517 207.272 55.867 206.981 57.2223C206.691 58.5777 205.874 59.7622 204.71 60.5152C203.546 61.2682 202.131 61.5281 200.776 61.2376ZM81.0431 195.934C78.3323 195.353 75.9634 193.719 74.4573 191.391C72.9513 189.064 72.4316 186.233 73.0125 183.522C73.5934 180.812 75.2274 178.443 77.5549 176.937C79.8825 175.431 82.713 174.911 85.4237 175.492C88.1345 176.073 90.5035 177.707 92.0095 180.034C93.5155 182.362 94.0352 185.192 93.4543 187.903C92.8734 190.614 91.2394 192.983 88.9119 194.489C86.5843 195.995 83.7538 196.514 81.0431 195.934Z" stroke="black" stroke-width="8.58428" stroke-linecap="round" stroke-linejoin="round"/>
</svg>
