<svg width="35" height="37" viewBox="0 0 35 37" fill="none" xmlns="http://www.w3.org/2000/svg">
<path fill-rule="evenodd" clip-rule="evenodd" d="M14.1738 3.55283e-05H20.514C20.9197 -0.000223305 21.2732 -0.000448722 21.607 0.0528522C22.9257 0.263426 24.0668 1.0859 24.6836 2.27032C24.8397 2.57012 24.9513 2.90552 25.0793 3.29051L25.2886 3.91845C25.324 4.02474 25.3342 4.05483 25.3428 4.07853C25.6711 4.98625 26.5224 5.59987 27.4874 5.62432C27.5127 5.62496 27.5438 5.62507 27.6564 5.62507H33.2814C34.0581 5.62507 34.6877 6.25467 34.6877 7.03132C34.6877 7.80797 34.0581 8.43757 33.2814 8.43757H1.40625C0.6296 8.43757 0 7.80797 0 7.03132C0 6.25467 0.6296 5.62507 1.40625 5.62507H7.03141C7.14399 5.62507 7.17507 5.62496 7.20044 5.62432C8.16541 5.59986 9.0167 4.98629 9.34504 4.07858C9.35368 4.05471 9.36361 4.02527 9.39921 3.91845L9.60847 3.29056C9.73652 2.90558 9.84811 2.57012 10.0042 2.27033C10.621 1.0859 11.7621 0.263426 13.0808 0.0528522C13.4146 -0.000448722 13.7681 -0.000223305 14.1738 3.55283e-05ZM11.734 5.62507C11.8306 5.43565 11.9162 5.23882 11.9898 5.03527C12.0122 4.97346 12.0341 4.90767 12.0623 4.82313L12.2494 4.26173C12.4204 3.7489 12.4597 3.6443 12.4988 3.56932C12.7044 3.17451 13.0847 2.90036 13.5243 2.83017C13.6078 2.81683 13.7194 2.81257 14.26 2.81257H20.4278C20.9684 2.81257 21.08 2.81683 21.1635 2.83017C21.6031 2.90036 21.9835 3.17452 22.189 3.56932C22.2281 3.64431 22.2674 3.74888 22.4384 4.26173L22.6254 4.82279L22.698 5.03531C22.7716 5.23885 22.8572 5.43567 22.9538 5.62507H11.734Z" fill="black"/>
<path d="M5.93454 11.6253C5.88288 10.8503 5.2128 10.264 4.43787 10.3157C3.66294 10.3673 3.07661 11.0374 3.12827 11.8124L3.99724 24.8469C4.15754 27.252 4.28703 29.1948 4.59073 30.7193C4.90648 32.3043 5.44351 33.6281 6.55276 34.6659C7.662 35.7036 9.01865 36.1514 10.6211 36.361C12.1624 36.5626 14.1095 36.5626 16.5199 36.5626H18.1678C20.5782 36.5626 22.5254 36.5626 24.0667 36.361C25.6692 36.1514 27.0258 35.7036 28.1351 34.6659C29.2443 33.6281 29.7813 32.3043 30.0971 30.7193C30.4008 29.1948 30.5303 27.252 30.6906 24.8469L31.5595 11.8124C31.6112 11.0374 31.0249 10.3673 30.25 10.3157C29.475 10.264 28.8049 10.8503 28.7533 11.6253L27.8909 24.5611C27.7224 27.0883 27.6023 28.8468 27.3388 30.1698C27.0831 31.4531 26.7263 32.1324 26.2136 32.612C25.701 33.0917 24.9994 33.4026 23.7019 33.5723C22.3643 33.7473 20.6018 33.7501 18.0689 33.7501H16.6189C14.0861 33.7501 12.3235 33.7473 10.9859 33.5723C9.68841 33.4026 8.98686 33.0917 8.47421 32.612C7.96156 32.1324 7.60469 31.4531 7.34903 30.1698C7.08547 28.8468 6.96541 27.0883 6.79693 24.5611L5.93454 11.6253Z" fill="black"/>
<path d="M12.5165 15.0071C13.2893 14.9298 13.9784 15.4936 14.0557 16.2664L14.9932 25.6414C15.0705 26.4142 14.5066 27.1033 13.7338 27.1806C12.9611 27.2579 12.2719 26.694 12.1947 25.9212L11.2572 16.5462C11.1799 15.7735 11.7437 15.0843 12.5165 15.0071Z" fill="black"/>
<path d="M22.1713 15.0071C22.9441 15.0843 23.508 15.7735 23.4307 16.5462L22.4932 25.9212C22.4159 26.694 21.7268 27.2579 20.954 27.1806C20.1812 27.1033 19.6174 26.4142 19.6947 25.6414L20.6322 16.2664C20.7094 15.4936 21.3986 14.9298 22.1713 15.0071Z" fill="black"/>
</svg>
