<svg width="33" height="33" viewBox="0 0 33 33" fill="none" xmlns="http://www.w3.org/2000/svg">
<path d="M0.94 33H8.554C7.097 29.569 7.661 24.493 8.695 20.968L9.212 19.182H20.539L22.701 25.668C23.782 28.958 24.346 30.086 23.923 33H32.947C30.785 30.086 30.362 28.958 29.281 25.668L23.218 7.338C22.137 4.048 21.761 2.92 21.996 0.00599897L12.878 0.0529984L13.771 0.992997L7.896 20.968C6.862 24.493 4.418 29.569 0.94 33ZM9.447 18.383L14.335 1.792C15.181 3.155 15.792 4.753 16.638 7.338L20.304 18.383H9.447Z" fill="#111111"/>
</svg>
