<svg width="55" height="55" viewBox="0 0 55 55" fill="none" xmlns="http://www.w3.org/2000/svg">
<path d="M27.4987 12.606L26.2379 13.8196C26.5678 14.1623 27.023 14.356 27.4987 14.356C27.9744 14.356 28.4297 14.1623 28.7596 13.8196L27.4987 12.606ZM20.536 43.3378L19.4526 44.7121H19.4526L20.536 43.3378ZM34.4614 43.3378L33.378 41.9635L34.4614 43.3378ZM16.0616 37.6075C15.3154 36.9933 14.2125 37.1004 13.5983 37.8466C12.9842 38.5929 13.0912 39.6958 13.8375 40.3099L16.0616 37.6075ZM5.33833 30.75C5.8021 31.598 6.86547 31.9094 7.71343 31.4456C8.56139 30.9819 8.87284 29.9185 8.40907 29.0705L5.33833 30.75ZM6.33203 20.9396C6.33203 16.0222 9.1106 11.9001 12.9008 10.1676C16.5808 8.48549 21.5297 8.92795 26.2379 13.8196L28.7596 11.3924C23.1556 5.57015 16.6462 4.60728 11.4458 6.98438C6.35574 9.31106 2.83203 14.7127 2.83203 20.9396H6.33203ZM19.4526 44.7121C20.6262 45.6373 21.888 46.6255 23.1673 47.373C24.446 48.1202 25.9086 48.7295 27.4987 48.7295V45.2295C26.7971 45.2295 25.968 44.9558 24.9332 44.3511C23.8989 43.7467 22.8252 42.914 21.6194 41.9635L19.4526 44.7121ZM35.5448 44.7121C38.8124 42.1363 42.9948 39.1806 46.2754 35.4865C49.6161 31.7248 52.1654 27.0578 52.1654 20.9396H48.6654C48.6654 25.9655 46.6091 29.8399 43.6585 33.1624C40.6478 36.5525 36.8532 39.2239 33.378 41.9635L35.5448 44.7121ZM52.1654 20.9396C52.1654 14.7127 48.6417 9.31106 43.5516 6.98438C38.3513 4.60728 31.8418 5.57015 26.2379 11.3924L28.7596 13.8196C33.4678 8.92795 38.4166 8.48549 42.0966 10.1676C45.8868 11.9001 48.6654 16.0222 48.6654 20.9396H52.1654ZM33.378 41.9635C32.1722 42.914 31.0986 43.7467 30.0643 44.3511C29.0294 44.9558 28.2003 45.2295 27.4987 45.2295V48.7295C29.0888 48.7295 30.5514 48.1202 31.8301 47.373C33.1094 46.6255 34.3712 45.6373 35.5448 44.7121L33.378 41.9635ZM21.6194 41.9635C19.7943 40.5248 17.9422 39.1552 16.0616 37.6075L13.8375 40.3099C15.7404 41.876 17.7517 43.3713 19.4526 44.7121L21.6194 41.9635ZM8.40907 29.0705C7.12527 26.7232 6.33203 24.0647 6.33203 20.9396H2.83203C2.83203 24.6979 3.79594 27.9299 5.33833 30.75L8.40907 29.0705Z" fill="#1D1D1B"/>
<path opacity="0.85" d="M13 35C13 33.6824 12.0545 33 11.0121 33C9.94545 33 9 33.7059 9 35C9 36.3176 9.94545 37 10.9879 37C12.0545 37 13 36.3176 13 35Z" fill="#1D1D1B"/>
</svg>
