<svg width="56" height="55" viewBox="0 0 56 55" fill="none" xmlns="http://www.w3.org/2000/svg">
<path d="M28.3464 12.605L27.1978 13.7105C27.4983 14.0228 27.913 14.1992 28.3464 14.1992C28.7797 14.1992 29.1944 14.0228 29.4949 13.7105L28.3464 12.605ZM21.3837 43.3368L20.3967 44.5888H20.3967L21.3837 43.3368ZM35.3091 43.3368L34.3221 42.0849L35.3091 43.3368ZM16.8103 37.7268C16.1304 37.1673 15.1258 37.2649 14.5663 37.9447C14.0068 38.6245 14.1044 39.6291 14.7842 40.1886L16.8103 37.7268ZM6.32271 30.6742C6.74518 31.4467 7.71386 31.7304 8.48631 31.3079C9.25877 30.8855 9.54248 29.9168 9.12 29.1443L6.32271 30.6742ZM7.02386 20.9386C7.02386 15.9629 9.8356 11.7839 13.6837 10.0249C17.4313 8.31184 22.4497 8.77747 27.1978 13.7105L29.4949 11.4995C23.9309 5.71867 17.4909 4.77897 12.3582 7.12513C7.32605 9.42535 3.83552 14.77 3.83552 20.9386H7.02386ZM20.3967 44.5888C21.5718 45.515 22.8252 46.4963 24.0936 47.2375C25.3615 47.9783 26.7958 48.5727 28.3464 48.5727V45.3844C27.6052 45.3844 26.7479 45.0957 25.7022 44.4847C24.657 43.8739 23.5749 43.0343 22.3706 42.0849L20.3967 44.5888ZM36.296 44.5888C39.5728 42.0056 43.7379 39.0627 47.0066 35.3821C50.3299 31.6399 52.8572 27.0082 52.8572 20.9386H49.6689C49.6689 26.0132 47.5906 29.9229 44.6226 33.2649C41.6 36.6685 37.7881 39.3526 34.3221 42.0849L36.296 44.5888ZM52.8572 20.9386C52.8572 14.77 49.3667 9.42535 44.3345 7.12513C39.2018 4.77897 32.7619 5.71867 27.1978 11.4995L29.4949 13.7105C34.243 8.77747 39.2614 8.31184 43.009 10.0249C46.8571 11.7839 49.6689 15.9629 49.6689 20.9386H52.8572ZM34.3221 42.0849C33.1178 43.0343 32.0357 43.8739 30.9905 44.4847C29.9448 45.0957 29.0875 45.3844 28.3464 45.3844V48.5727C29.8969 48.5727 31.3313 47.9783 32.5991 47.2375C33.8675 46.4963 35.121 45.515 36.296 44.5888L34.3221 42.0849ZM22.3706 42.0849C20.5511 40.6505 18.6918 39.2753 16.8103 37.7268L14.7842 40.1886C16.6861 41.7539 18.6903 43.2435 20.3967 44.5888L22.3706 42.0849ZM9.12 29.1443C7.82469 26.776 7.02386 24.0919 7.02386 20.9386H3.83552C3.83552 24.6688 4.79183 27.8752 6.32271 30.6742L9.12 29.1443Z" fill="white"/>
<path opacity="0.85" d="M13.8437 35C13.8437 33.6824 12.8983 33 11.8559 33C10.7892 33 9.84375 33.7059 9.84375 35C9.84375 36.3176 10.7892 37 11.8316 37C12.8983 37 13.8437 36.3176 13.8437 35Z" fill="white"/>
</svg>
