<svg width="35" height="35" viewBox="0 0 35 35" fill="none" xmlns="http://www.w3.org/2000/svg">
<path fill-rule="evenodd" clip-rule="evenodd" d="M12.956 3.17116C12.5463 3.30095 12.1417 3.44847 11.7433 3.61348C9.9196 4.36888 8.26257 5.47607 6.86679 6.87185C5.471 8.26763 4.36381 9.92466 3.60842 11.7483C3.00893 13.1956 2.64034 14.7254 2.51372 16.2818H9.79451C9.84651 14.501 10.0123 12.746 10.2879 11.0827C10.6258 9.04337 11.125 7.16415 11.7677 5.55743C12.1186 4.68022 12.515 3.87722 12.956 3.17116ZM17.4955 0.0317993C15.2015 0.031799 12.9299 0.483641 10.8105 1.36153C8.69108 2.23941 6.76534 3.52615 5.14321 5.14828C3.52109 6.7704 2.23435 8.69614 1.35646 10.8155C0.478576 12.935 0.0267336 15.2065 0.0267334 17.5005C0.0267332 19.7946 0.478576 22.0661 1.35646 24.1856C2.23435 26.305 3.52109 28.2307 5.14321 29.8528C6.76534 31.4749 8.69108 32.7617 10.8105 33.6396C12.9299 34.5175 15.2015 34.9693 17.4955 34.9693C19.7895 34.9693 22.0611 34.5175 24.1805 33.6396C26.2999 32.7617 28.2256 31.4749 29.8478 29.8528C31.4699 28.2307 32.7566 26.305 33.6345 24.1856C34.5124 22.0661 34.9642 19.7946 34.9642 17.5006C34.9642 15.2065 34.5124 12.935 33.6345 10.8156C32.7566 8.69615 31.4699 6.7704 29.8478 5.14828C28.2256 3.52616 26.2999 2.23942 24.1805 1.36153C22.0611 0.483643 19.7895 0.0317996 17.4955 0.0317993ZM17.4955 2.4693C17.0709 2.4693 16.5225 2.67371 15.8847 3.33412C15.2423 3.99941 14.5991 5.04209 14.0309 6.4627C13.4664 7.87388 13.008 9.57743 12.6926 11.4812C12.4396 13.0085 12.2844 14.6294 12.2331 16.2818L22.7579 16.2818C22.7066 14.6294 22.5514 13.0085 22.2983 11.4812C21.9829 9.57744 21.5246 7.87388 20.9601 6.4627C20.3919 5.0421 19.7487 3.99941 19.1062 3.33412C18.4685 2.67371 17.92 2.4693 17.4955 2.4693ZM25.1965 16.2818C25.1445 14.501 24.9786 12.746 24.7031 11.0827C24.3652 9.04337 23.8659 7.16416 23.2233 5.55743C22.8724 4.68022 22.4759 3.87722 22.035 3.17116C22.4447 3.30095 22.8493 3.44847 23.2477 3.61349C25.0714 4.36888 26.7284 5.47607 28.1242 6.87185C29.52 8.26763 30.6272 9.92467 31.3826 11.7483C31.982 13.1956 32.3506 14.7254 32.4772 16.2818H25.1965ZM22.7579 18.7193L12.2331 18.7193C12.2844 20.3717 12.4396 21.9926 12.6926 23.5199C13.008 25.4237 13.4664 27.1272 14.0309 28.5384C14.5991 29.959 15.2423 31.0017 15.8847 31.667C16.5225 32.3274 17.0709 32.5318 17.4955 32.5318C17.92 32.5318 18.4685 32.3274 19.1062 31.667C19.7487 31.0017 20.3919 29.959 20.9601 28.5384C21.5246 27.1272 21.9829 25.4237 22.2983 23.5199C22.5514 21.9926 22.7066 20.3717 22.7579 18.7193ZM22.035 31.8299C22.4759 31.1239 22.8724 30.3209 23.2233 29.4437C23.8659 27.8369 24.3652 25.9577 24.7031 23.9184C24.9786 22.2551 25.1445 20.5001 25.1965 18.7193H32.4772C32.3506 20.2757 31.982 21.8055 31.3826 23.2528C30.6272 25.0764 29.52 26.7335 28.1242 28.1292C26.7284 29.525 25.0714 30.6322 23.2477 31.3876C22.8493 31.5526 22.4447 31.7001 22.035 31.8299ZM12.956 31.8299C12.515 31.1239 12.1186 30.3209 11.7677 29.4437C11.125 27.8369 10.6258 25.9577 10.2879 23.9184C10.0123 22.2551 9.84651 20.5001 9.79451 18.7193H2.51372C2.64034 20.2757 3.00893 21.8055 3.60842 23.2528C4.36381 25.0764 5.471 26.7335 6.86678 28.1292C8.26256 29.525 9.9196 30.6322 11.7433 31.3876C12.1417 31.5526 12.5463 31.7001 12.956 31.8299Z" fill="white"/>
</svg>
