<svg width="211" height="55" viewBox="0 0 211 55" fill="none" xmlns="http://www.w3.org/2000/svg">
<mask id="mask0_206_1215" style="mask-type:luminance" maskUnits="userSpaceOnUse" x="0" y="0" width="211" height="55">
<path d="M27.4102 33.546L15.8547 33.4508C15.2058 33.4508 15.3658 33.1177 15.5173 32.5985L20.7997 14.6661C21.0549 13.8051 21.2756 12.4813 21.6519 13.2947C22.3182 14.7396 22.872 16.4269 23.655 18.7804L28.3663 32.9749C28.5394 33.5027 28.2149 33.546 27.713 33.546C27.6179 33.5503 27.5184 33.546 27.4102 33.546ZM18.1823 8.77368L19.4326 10.2879L11.204 38.1405C9.75466 43.0768 5.80477 50.1892 0.734375 54.9957H12.8609C10.4945 50.1459 11.814 43.3407 13.2633 38.4044L13.8646 36.3321C13.9858 35.9168 14.3708 35.4495 14.8034 35.4495L28.15 35.6399C28.5697 35.6399 28.9374 35.9081 29.0715 36.3061L31.8793 44.7294C33.3935 49.3369 34.1159 50.9203 33.5925 55H48.8686C45.7753 50.916 45.2475 49.3369 43.7333 44.7294L35.2408 19.0529C33.7266 14.4454 33.1988 12.862 33.5276 8.78234H18.1823V8.77368ZM75.8299 8.77368C76.8855 11.5382 76.2539 15.2242 74.6056 19.7668L68.5877 36.4619L59.6972 15.5573C59.1045 14.5709 58.2479 11.5425 58.183 8.77368H40.8C43.6987 11.4733 44.9489 13.3163 48.3061 20.7575L63.8461 54.9957H64.5037L77.4739 18.9794C79.1871 14.3719 80.2384 12.7885 83.6648 8.77368H75.8299ZM100.373 33.546L88.8174 33.4508C88.1685 33.4508 88.3286 33.1177 88.48 32.5985L93.7624 14.6661C94.0176 13.8051 94.2383 12.4813 94.6146 13.2947C95.2809 14.7396 95.8347 16.4269 96.6177 18.7804L101.329 32.9749C101.502 33.5027 101.178 33.546 100.676 33.546C100.581 33.5503 100.477 33.546 100.373 33.546ZM91.145 8.77368L84.1667 38.1405C82.7174 43.0768 78.7675 50.1892 73.6971 54.9957H85.8236C83.4572 50.1459 84.7767 43.3407 86.226 38.4044L86.8273 36.3321C86.9485 35.9168 87.3335 35.4495 87.7661 35.4495L101.113 35.6399C101.528 35.6399 101.9 35.9081 102.034 36.3061L104.842 44.7294C106.356 49.3369 107.079 50.9203 106.555 55H121.831C118.738 50.916 118.21 49.3369 116.696 44.7294L108.203 19.0529C106.689 14.4454 106.161 12.862 106.49 8.78234H91.145V8.77368ZM124.483 7.95604C126.391 12.04 126.196 13.6191 126.196 18.2266V43.9031C126.196 48.5106 126.395 50.094 124.483 54.1737H139.759C138.046 50.0897 138.046 48.5106 138.046 43.9031V18.2266C138.046 13.6191 138.046 12.0357 139.759 7.95604H124.483ZM144.168 7.95604C146.076 12.04 145.881 13.6191 145.881 18.2266V43.9031C145.881 48.5106 146.08 50.094 144.168 54.1737H159.444C157.731 50.0897 157.731 48.5106 157.731 43.9031V18.2266C157.731 13.6191 157.731 12.0357 159.444 7.95604H144.168ZM188.802 32.7283L177.247 32.6331C176.598 32.6331 176.758 32.3 176.909 31.7852L182.192 13.8527C182.447 12.9918 182.667 11.668 183.044 12.4813C183.71 13.9263 184.264 15.6135 185.047 17.967L189.758 32.1616C189.931 32.6894 189.607 32.7326 189.105 32.7326C189.014 32.7283 188.91 32.7283 188.802 32.7283ZM179.578 7.95604L180.829 9.47023L172.6 37.3228C171.151 42.2591 167.201 49.3715 162.131 54.178H174.257C171.891 49.3282 173.21 42.523 174.659 37.5867L175.261 35.5144C175.382 35.0991 175.763 34.6319 176.195 34.6319L189.542 34.8222C189.962 34.8222 190.329 35.0904 190.463 35.4885L193.271 43.9117C194.785 48.5192 195.508 50.1026 194.984 54.1823H210.26C207.167 50.0983 206.639 48.5192 205.125 43.9117L196.633 18.2353C195.118 13.6278 194.591 12.0444 194.919 7.96467H179.578V7.95604ZM136.51 2.57414C136.51 3.99749 137.661 5.14826 139.084 5.14826C140.503 5.14826 141.659 3.99749 141.659 2.57414C141.659 1.15512 140.508 0 139.084 0C137.661 0 136.51 1.1508 136.51 2.57414ZM143.026 2.57414C143.026 3.99749 144.176 5.14826 145.6 5.14826C147.023 5.14826 148.174 3.99749 148.174 2.57414C148.174 1.15512 147.023 0 145.6 0C144.181 0 143.026 1.1508 143.026 2.57414Z" fill="white"/>
</mask>
<g mask="url(#mask0_206_1215)">
<g opacity="0.8">
<mask id="mask1_206_1215" style="mask-type:luminance" maskUnits="userSpaceOnUse" x="-122" y="-627" width="430" height="799">
<path d="M307.856 -626.085H-121.367V171.041H307.856V-626.085Z" fill="white"/>
</mask>
<g mask="url(#mask1_206_1215)">
<mask id="mask2_206_1215" style="mask-type:luminance" maskUnits="userSpaceOnUse" x="0" y="-19" width="211" height="102">
<path d="M210.248 -18.249H0.726562V82.0125H210.248V-18.249Z" fill="white"/>
</mask>
<g mask="url(#mask2_206_1215)">
<rect x="0.726562" y="-18.249" width="209.53" height="100.259" fill="white"/>
</g>
</g>
</g>
</g>
</svg>
